<svg width="174" height="204" viewBox="0 0 174 204" fill="none" xmlns="http://www.w3.org/2000/svg">
<path d="M67.604 83.8675C50.372 80.3327 49.4899 56.0413 66.4203 51.2661L72.7477 49.4814C76.1753 48.5147 79.2484 46.5732 81.5936 43.893L100.09 22.7544C111.061 10.2163 130.146 9.01884 142.598 20.0872L157.826 33.6229C167.483 42.2074 170.559 56.0113 165.46 67.8841L142.331 121.737C130.973 148.183 92.502 145.008 85.6328 117.058L80.5328 96.3058C78.9859 90.0114 73.9535 85.1699 67.604 83.8675V83.8675Z" fill="#F8512F"/>
<path d="M139.926 59.1755C140.735 58.6195 141.436 58.3964 142.029 58.5062C142.657 58.5918 143.165 58.9159 143.552 59.4784C144.18 60.3925 144.455 61.3945 144.376 62.4845C144.332 63.5502 143.742 64.4996 142.606 65.3325C139.842 67.3368 137.201 68.8423 134.683 69.8489C135.789 76.8037 135.763 83.2423 134.605 89.1645C133.459 95.0274 131.11 99.1796 127.559 101.621C123.903 104.135 119.715 103.882 114.997 100.861C110.279 97.8399 105.43 92.7082 100.45 85.4658C96.1952 79.2782 92.815 73.4212 90.3095 67.8948C89.3688 65.8491 88.9621 64.3164 89.0895 63.2968C89.2279 62.2178 90.0002 61.1948 91.4064 60.2278C93.7268 58.6323 95.576 58.8365 96.954 60.8404C97.099 61.0514 97.3298 61.4623 97.6463 62.0731C100.943 69.1267 104.356 75.2199 107.886 80.3528C111.584 85.7318 114.84 89.5255 117.653 91.7336C120.477 93.8825 122.786 94.3405 124.579 93.1076C126.407 91.8505 127.523 89.2189 127.927 85.2129C128.331 81.207 128.112 76.6715 127.27 71.6064C124.207 71.7451 121.405 71.1345 118.864 69.7745C116.3 68.3793 114.063 66.293 112.153 63.5156C110.243 60.7382 109.057 58.1102 108.596 55.6315C108.145 53.0935 108.331 50.8422 109.155 48.8776C110.014 46.8888 111.358 45.2659 113.186 44.0088C115.436 42.4616 117.768 42.0494 120.181 42.7722C122.629 43.4707 124.82 45.2263 126.754 48.0389C129.534 52.0819 131.689 57.0985 133.219 63.0886C135.299 62.1238 137.535 60.8194 139.926 59.1755ZM117.225 59.484C119.594 62.9294 122.455 64.7167 125.806 64.8461C124.469 59.9657 122.919 56.2423 121.154 53.6758C120.138 52.1992 119.208 51.2599 118.362 50.8578C117.491 50.4206 116.722 50.4316 116.054 50.891C115.105 51.5437 114.718 52.638 114.894 54.174C115.046 55.6749 115.823 57.4449 117.225 59.484Z" fill="black"/>
</svg>
